<svg width="24" height="24" viewBox="0 0 24 24" fill="none" xmlns="http://www.w3.org/2000/svg">
<path d="M3.37658 3.37658C3.87868 2.87447 4.69275 2.87447 5.19485 3.37658L12 10.1817L18.8051 3.37658C19.3073 2.87447 20.1213 2.87447 20.6234 3.37658C21.1255 3.87868 21.1255 4.69275 20.6234 5.19485L13.8183 12L20.6234 18.8051C21.1255 19.3073 21.1255 20.1213 20.6234 20.6234C20.1213 21.1255 19.3073 21.1255 18.8051 20.6234L12 13.8183L5.19485 20.6234C4.69275 21.1255 3.87868 21.1255 3.37658 20.6234C2.87447 20.1213 2.87447 19.3073 3.37658 18.8051L10.1817 12L3.37658 5.19485C2.87447 4.69275 2.87447 3.87868 3.37658 3.37658Z" fill="white"/>
</svg>
